<!--?xml version="1.0" encoding="UTF-8" standalone="no"?-->
<svg xmlns:dc="http://purl.org/dc/elements/1.1/" xmlns:cc="http://creativecommons.org/ns#" xmlns:rdf="http://www.w3.org/1999/02/22-rdf-syntax-ns#" xmlns:svg="http://www.w3.org/2000/svg" xmlns="http://www.w3.org/2000/svg" xmlns:sodipodi="http://sodipodi.sourceforge.net/DTD/sodipodi-0.dtd" xmlns:inkscape="http://www.inkscape.org/namespaces/inkscape" width="162" height="283" viewBox="0 0 162 8083" fill="#ffffff" version="1.1" id="svg191" sodipodi:docname="Patterns.svg" style="">
  <metadata id="metadata195">
    <rdf:rdf>
      <cc:work rdf:about="">
        <dc:format>image/svg+xml</dc:format>
        <dc:type rdf:resource="http://purl.org/dc/dcmitype/StillImage"></dc:type>
      </cc:work>
    </rdf:rdf>
  </metadata>
  <sodipodi:namedview pagecolor="#ffffff" bordercolor="#666666" borderopacity="1" objecttolerance="10" gridtolerance="10" guidetolerance="10" inkscape:pageopacity="0" inkscape:pageshadow="2" inkscape:window-width="640" inkscape:window-height="480" id="namedview193"></sodipodi:namedview>
  <g style="mix-blend-mode:multiply" filter="url(#filter0_d_10:10695)" id="g170">
    <path fill-rule="evenodd" clip-rule="evenodd" d="M11549 3214.93C11549 3086.81 11433.8 2982.95 11291.5 2982.95C11149.3 2982.95 11034.1 3086.81 11034.1 3214.93C11034.1 3343.04 11149.3 3446.9 11291.5 3446.9C11433.8 3446.9 11549 3343.04 11549 3214.93ZM11291.5 2704.59C11604.4 2704.59 11858 2933.07 11858 3214.93C11858 3496.78 11604.4 3725.26 11291.5 3725.26C10978.7 3725.26 10725.1 3496.78 10725.1 3214.93C10725.1 2933.07 10978.7 2704.59 11291.5 2704.59Z" fill="#FD6234" id="path2" class="KOJPtQWY_0"></path>
    <path fill-rule="evenodd" clip-rule="evenodd" d="M11280.5 3351.94C11195.4 3351.94 11126.2 3289.71 11126.2 3212.94C11126.2 3136.18 11195.4 3073.94 11280.5 3073.94C11365.7 3073.94 11434.8 3136.18 11434.8 3212.94C11434.8 3289.71 11365.7 3351.94 11280.5 3351.94Z" fill="#463C74" id="path4" class="KOJPtQWY_1"></path>
    <path fill-rule="evenodd" clip-rule="evenodd" d="M4715.88 759.9C4816.43 669.557 4816.43 523.081 4715.88 432.738C4615.33 342.395 4452.3 342.395 4351.75 432.738C4251.2 523.081 4251.2 669.557 4351.75 759.9C4412.08 814.106 4412.08 901.995 4351.75 956.193C4291.42 1010.4 4193.6 1010.4 4133.28 956.193C3912.06 757.442 3912.06 435.197 4133.28 236.441C4354.48 37.6864 4713.14 37.6863 4934.35 236.441C5155.57 435.197 5155.57 757.442 4934.35 956.193C4874.02 1010.4 4776.21 1010.4 4715.88 956.193C4655.55 901.995 4655.55 814.106 4715.88 759.9Z" fill="#463C74" id="path6" class="KOJPtQWY_2"></path>
    <path fill-rule="evenodd" clip-rule="evenodd" d="M4140.39 763.527C4200.64 709.244 4298.33 709.244 4358.58 763.527C4418.83 817.811 4418.83 905.821 4358.58 960.106C4298.33 1014.39 4200.64 1014.39 4140.39 960.106C4080.13 905.821 4080.13 817.811 4140.39 763.527Z" fill="#FD6234" id="path8" class="KOJPtQWY_3"></path>
    <path fill-rule="evenodd" clip-rule="evenodd" d="M6506.17 346.068C5936.99 346.068 5475.57 761.776 5475.57 1274.58C5475.57 1351.49 5406.35 1413.85 5320.98 1413.85C5235.6 1413.85 5166.39 1351.49 5166.39 1274.58C5166.39 607.936 5766.23 67.5156 6506.17 67.5156C6591.54 67.5156 6660.76 129.871 6660.76 206.792C6660.76 283.712 6591.54 346.068 6506.17 346.068Z" fill="#FFC735" id="path10" class="KOJPtQWY_4"></path>
    <path fill-rule="evenodd" clip-rule="evenodd" d="M7978.48 1203.22C7978.48 731.882 7554.37 349.785 7031.2 349.785C6945.91 349.785 6876.76 287.487 6876.76 210.638C6876.76 133.788 6945.91 71.4902 7031.2 71.4902C7724.97 71.4902 8287.37 578.184 8287.37 1203.22C8287.37 1280.07 8218.22 1342.37 8132.93 1342.37C8047.63 1342.37 7978.48 1280.07 7978.48 1203.22Z" fill="#B4D51E" id="path12" class="KOJPtQWY_5"></path>
    <path fill-rule="evenodd" clip-rule="evenodd" d="M4756.42 1675.98C4756.42 1752.74 4825.59 1814.98 4910.94 1814.98C5053.16 1814.98 5168.45 1918.7 5168.45 2046.65V2973.33C5168.45 3101.28 5053.16 3205 4910.94 3205C4825.59 3205 4756.42 3267.24 4756.42 3344C4756.42 3420.77 4825.59 3483.01 4910.94 3483.01C5073.28 3483.01 5219.67 3421.58 5322.97 3323.14C5426.25 3421.58 5572.66 3483.01 5735 3483.01H6208.83C6521.73 3483.01 6775.37 3254.82 6775.37 2973.33C6775.37 2896.56 6706.19 2834.33 6620.86 2834.33C6535.53 2834.33 6466.35 2896.56 6466.35 2973.33C6466.35 3101.28 6351.05 3205 6208.83 3205H5735C5592.77 3205 5477.48 3101.28 5477.48 2973.33V2046.65C5477.48 1765.16 5223.82 1536.97 4910.94 1536.97C4825.59 1536.97 4756.42 1599.21 4756.42 1675.98Z" fill="#B4D51E" id="path14" class="KOJPtQWY_6"></path>
    <path d="M8627.21 4418.29C8627.21 4290.18 8742.49 4186.32 8884.69 4186.32C9026.89 4186.32 9142.16 4290.18 9142.16 4418.29C9142.16 4546.41 9026.89 4650.26 8884.69 4650.26C8799.37 4650.26 8730.2 4712.58 8730.2 4789.45C8730.2 4866.31 8799.37 4928.63 8884.69 4928.63C9197.53 4928.63 9451.14 4700.15 9451.14 4418.29C9451.14 4136.44 9197.53 3907.96 8884.69 3907.96C8571.84 3907.96 8318.24 4136.44 8318.24 4418.29C8318.24 4495.16 8387.4 4557.48 8472.72 4557.48C8558.04 4557.48 8627.21 4495.16 8627.21 4418.29Z" fill="#E5E0D5" id="path16" class="KOJPtQWY_7"></path>
    <path fill-rule="evenodd" clip-rule="evenodd" d="M4910.71 3483C4825.49 3483 4756.42 3420.77 4756.42 3344C4756.42 3267.24 4825.49 3205 4910.71 3205C4995.92 3205 5065 3267.24 5065 3344C5065 3420.77 4995.92 3483 4910.71 3483Z" fill="#FD6234" id="path18" class="KOJPtQWY_8"></path>
    <path fill-rule="evenodd" clip-rule="evenodd" d="M4910.71 1814.98C4825.49 1814.98 4756.42 1752.74 4756.42 1675.98C4756.42 1599.21 4825.49 1536.97 4910.71 1536.97C4995.92 1536.97 5065 1599.21 5065 1675.98C5065 1752.74 4995.92 1814.98 4910.71 1814.98Z" fill="#FD6234" id="path20" class="KOJPtQWY_9"></path>
    <path fill-rule="evenodd" clip-rule="evenodd" d="M2768.29 2871.01C2683.08 2871.01 2614 2808.77 2614 2732C2614 2655.24 2683.08 2593 2768.29 2593C2853.49 2593 2922.57 2655.24 2922.57 2732C2922.57 2808.77 2853.49 2871.01 2768.29 2871.01Z" fill="#FD6234" id="path22" class="KOJPtQWY_10"></path>
    <path fill-rule="evenodd" clip-rule="evenodd" d="M10543.1 3223.19C10543.1 3504.87 10289.4 3733.21 9976.54 3733.21H8946.48C8633.59 3733.21 8379.94 3504.87 8379.94 3223.19C8379.94 2941.52 8633.59 2713.18 8946.48 2713.18H9276.1V2421.08C9276.1 2139.41 9529.74 1911.06 9842.63 1911.06H10872.7C11014.9 1911.06 11130.2 1807.27 11130.2 1679.24V1252.68C11130.2 1124.65 11014.9 1020.86 10872.7 1020.86C10787.4 1020.86 10718.2 958.58 10718.2 881.763C10718.2 804.943 10787.4 742.668 10872.7 742.668C11185.6 742.668 11439.2 971.006 11439.2 1252.68V1679.24C11439.2 1825.38 11370.9 1957.18 11261.5 2050.16C11370.9 2143.15 11439.2 2274.94 11439.2 2421.08V2838.36C11439.2 2915.18 11370 2977.46 11284.7 2977.46C11199.4 2977.46 11130.2 2915.18 11130.2 2838.36V2421.08C11130.2 2293.05 11014.9 2189.25 10872.7 2189.25H9842.63C9700.41 2189.25 9585.11 2293.05 9585.11 2421.08V2713.18H9976.54C10289.4 2713.18 10543.1 2941.52 10543.1 3223.19ZM8946.48 2991.37C8804.26 2991.37 8688.96 3095.16 8688.96 3223.19C8688.96 3351.22 8804.26 3455.02 8946.48 3455.02H9976.54C10118.8 3455.02 10234.1 3351.22 10234.1 3223.19C10234.1 3095.16 10118.8 2991.37 9976.54 2991.37H8946.48Z" fill="#B4D51E" id="path24" class="KOJPtQWY_11"></path>
    <path fill-rule="evenodd" clip-rule="evenodd" d="M8230.74 1887.46C8406.45 1951.83 8605.45 1876.32 8676.06 1720.6C8746.66 1564.89 8663.08 1385.86 8487.37 1321.5C8390.29 1285.94 8286.08 1292.98 8199.97 1333.02C8124.15 1368.26 8030.91 1341.59 7991.7 1273.45C7952.49 1205.32 7982.16 1121.52 8057.97 1086.27C8221.26 1010.36 8419.92 996.802 8604.01 1064.24C8936.53 1186.04 9097.83 1526.51 8962.28 1825.45C8826.73 2124.39 8446.6 2266.52 8114.08 2144.72C8035.05 2115.77 7997.09 2034.7 8029.3 1963.67C8061.51 1892.63 8151.7 1858.51 8230.74 1887.46Z" fill="#FFC735" id="path26" class="KOJPtQWY_12"></path>
    <path fill-rule="evenodd" clip-rule="evenodd" d="M10540 3252.65C10540 3605.8 10857.7 3892.07 11249.7 3892.07C11334.8 3892.07 11404 3954.3 11404 4031.07C11404 4107.83 11334.8 4170.07 11249.7 4170.07C10687.2 4170.07 10231.4 3759.33 10231.4 3252.65C10231.4 3175.89 10300.5 3113.65 10385.7 3113.65C10470.8 3113.65 10540 3175.89 10540 3252.65Z" fill="#FFC735" id="path28" class="KOJPtQWY_13"></path>
    <path fill-rule="evenodd" clip-rule="evenodd" d="M10385.7 3383.71C10300.5 3383.71 10231.4 3321.48 10231.4 3244.71C10231.4 3167.94 10300.5 3105.71 10385.7 3105.71C10470.8 3105.71 10540 3167.94 10540 3244.71C10540 3321.48 10470.8 3383.71 10385.7 3383.71Z" fill="#FD6234" id="path30" class="KOJPtQWY_14"></path>
    <path fill-rule="evenodd" clip-rule="evenodd" d="M4756.03 2692.96C4756.03 2565.27 4640.75 2461.76 4498.55 2461.76C4356.34 2461.76 4241.07 2565.27 4241.07 2692.96C4241.07 2769.57 4171.9 2831.68 4086.59 2831.68C4001.26 2831.68 3932.1 2769.57 3932.1 2692.96C3932.1 2412.04 4185.7 2184.32 4498.55 2184.32C4811.39 2184.32 5065 2412.04 5065 2692.96C5065 2769.57 4995.83 2831.68 4910.51 2831.68C4825.19 2831.68 4756.03 2769.57 4756.03 2692.96Z" fill="#FFC735" id="path32" class="KOJPtQWY_15"></path>
    <path fill-rule="evenodd" clip-rule="evenodd" d="M7290.73 2982.88C7290.73 2855.19 7175.45 2751.68 7033.25 2751.68C6891.05 2751.68 6775.77 2855.19 6775.77 2982.88C6775.77 3059.49 6706.6 3121.6 6621.28 3121.6C6535.97 3121.6 6466.8 3059.49 6466.8 2982.88C6466.8 2701.96 6720.4 2474.24 7033.25 2474.24C7346.09 2474.24 7599.7 2701.96 7599.7 2982.88C7599.7 3059.49 7530.53 3121.6 7445.21 3121.6C7359.89 3121.6 7290.73 3059.49 7290.73 2982.88Z" fill="#463C74" id="path34" class="KOJPtQWY_16"></path>
    <path fill-rule="evenodd" clip-rule="evenodd" d="M4972.6 4511.3C5427.58 4511.3 5796.4 4179.01 5796.4 3769.11C5796.4 3692.26 5865.56 3629.95 5950.86 3629.95C6036.17 3629.95 6105.33 3692.26 6105.33 3769.11C6105.33 4332.72 5598.18 4789.63 4972.6 4789.63C4887.3 4789.63 4818.14 4727.32 4818.14 4650.47C4818.14 4573.61 4887.3 4511.3 4972.6 4511.3Z" fill="#B4D51E" id="path36" class="KOJPtQWY_17"></path>
    <path fill-rule="evenodd" clip-rule="evenodd" d="M4910.71 2831.68C4825.49 2831.68 4756.42 2769.44 4756.42 2692.68C4756.42 2615.91 4825.49 2553.67 4910.71 2553.67C4995.92 2553.67 5065 2615.91 5065 2692.68C5065 2769.44 4995.92 2831.68 4910.71 2831.68Z" fill="#FD6234" id="path38" class="KOJPtQWY_18"></path>
    <path fill-rule="evenodd" clip-rule="evenodd" d="M5990.71 1953.98C5905.5 1953.98 5836.43 1891.74 5836.43 1814.97C5836.43 1738.21 5905.5 1675.97 5990.71 1675.97C6075.92 1675.97 6145 1738.21 6145 1814.97C6145 1891.74 6075.92 1953.98 5990.71 1953.98Z" fill="#FD6234" id="path40" class="KOJPtQWY_19"></path>
    <path fill-rule="evenodd" clip-rule="evenodd" d="M8335.87 4797.57C8335.87 4874.34 8404.95 4936.57 8490.15 4936.57C8575.36 4936.57 8644.44 4874.34 8644.44 4797.57C8644.44 4720.8 8575.36 4658.57 8490.15 4658.57C8404.95 4658.57 8335.87 4720.8 8335.87 4797.57Z" fill="#FD6234" id="path42" class="KOJPtQWY_20"></path>
    <path fill-rule="evenodd" clip-rule="evenodd" d="M7925.9 4797.57C7925.9 4874.34 7994.98 4936.57 8080.19 4936.57C8165.39 4936.57 8234.47 4874.34 8234.47 4797.57C8234.47 4720.8 8165.39 4658.57 8080.19 4658.57C7994.98 4658.57 7925.9 4720.8 7925.9 4797.57Z" fill="#FD6234" id="path44" class="KOJPtQWY_21"></path>
    <g style="mix-blend-mode:multiply" id="g48">
      <path fill-rule="evenodd" clip-rule="evenodd" d="M10952.1 8074.06C10639.2 8074.06 10385.7 7845.87 10385.7 7564.38V6637.7C10385.7 6356.21 10639.2 6128.02 10952.1 6128.02C11265 6128.02 11518.6 6356.21 11518.6 6637.7V7564.38C11518.6 7845.87 11265 8074.06 10952.1 8074.06ZM11209.6 7564.38V6637.7C11209.6 6509.75 11094.4 6406.03 10952.1 6406.03C10809.9 6406.03 10694.6 6509.75 10694.6 6637.7V7564.38C10694.6 7692.33 10809.9 7796.05 10952.1 7796.05C11094.4 7796.05 11209.6 7692.33 11209.6 7564.38Z" fill="#B4D51E" id="path46" class="KOJPtQWY_22"></path>
    </g>
    <path d="M11109.5 6267.22C11109.5 5986.14 11363.5 5758.28 11676.8 5758.28C11762.2 5758.28 11831.6 5696.13 11831.6 5619.47C11831.6 5542.81 11762.2 5480.67 11676.8 5480.67C11192.6 5480.67 10800 5832.82 10800 6267.22C10800 6343.88 10869.4 6406.03 10954.8 6406.03C11040.2 6406.03 11109.5 6343.88 11109.5 6267.22Z" fill="#E5E0D5" id="path50" class="KOJPtQWY_23"></path>
    <path fill-rule="evenodd" clip-rule="evenodd" d="M11108.6 6267.03C11108.6 6190.25 11039.5 6128.02 10954.3 6128.02C10869.2 6128.02 10800 6190.25 10800 6267.03C10800 6343.79 10869.2 6406.03 10954.3 6406.03C11039.5 6406.03 11108.6 6343.79 11108.6 6267.03Z" fill="#FD6234" id="path52" class="KOJPtQWY_24"></path>
    <path fill-rule="evenodd" clip-rule="evenodd" d="M8490.55 6801.19C8490.55 6929.31 8605.83 7033.16 8748.03 7033.16C8890.23 7033.16 9005.51 6929.31 9005.51 6801.19C9005.51 6673.08 8890.23 6569.22 8748.03 6569.22C8662.71 6569.22 8593.54 6506.9 8593.54 6430.04C8593.54 6353.17 8662.71 6290.86 8748.03 6290.86C9060.88 6290.86 9314.48 6519.34 9314.48 6801.19C9314.48 7083.05 9060.88 7311.53 8748.03 7311.53C8435.18 7311.53 8181.58 7083.05 8181.58 6801.19C8181.58 6724.33 8250.75 6662.01 8336.07 6662.01C8421.38 6662.01 8490.55 6724.33 8490.55 6801.19Z" fill="#463C74" id="path54" class="KOJPtQWY_25"></path>
    <path fill-rule="evenodd" clip-rule="evenodd" d="M8490.15 6799.2C8490.15 6875.97 8421.07 6938.2 8335.86 6938.2C8250.66 6938.2 8181.58 6875.97 8181.58 6799.2C8181.58 6722.44 8250.66 6660.2 8335.86 6660.2C8421.07 6660.2 8490.15 6722.44 8490.15 6799.2Z" fill="#FD6234" id="path56" class="KOJPtQWY_26"></path>
    <path fill-rule="evenodd" clip-rule="evenodd" d="M9314.48 7565.7C9314.48 7642.47 9245.4 7704.7 9160.2 7704.7C9074.99 7704.7 9005.91 7642.47 9005.91 7565.7C9005.91 7488.94 9074.99 7426.7 9160.2 7426.7C9245.4 7426.7 9314.48 7488.94 9314.48 7565.7Z" fill="#FD6234" id="path58" class="KOJPtQWY_27"></path>
    <path fill-rule="evenodd" clip-rule="evenodd" d="M9728.85 7561.73C9728.85 7638.5 9659.77 7700.73 9574.57 7700.73C9489.36 7700.73 9420.28 7638.5 9420.28 7561.73C9420.28 7484.97 9489.36 7422.73 9574.57 7422.73C9659.77 7422.73 9728.85 7484.97 9728.85 7561.73Z" fill="#FD6234" id="path60" class="KOJPtQWY_28"></path>
    <path fill-rule="evenodd" clip-rule="evenodd" d="M7934.45 4456.02C7738.14 4456.02 7573.8 4602.77 7573.8 4789.63C7573.8 4976.48 7738.14 5123.23 7934.45 5123.23C8019.8 5123.23 8089.01 5185.47 8089.01 5262.23C8089.01 5339 8019.8 5401.24 7934.45 5401.24C7561.67 5401.24 7264.68 5124.8 7264.68 4789.63C7264.68 4454.45 7561.67 4178.02 7934.45 4178.02C8019.8 4178.02 8089.01 4240.25 8089.01 4317.02C8089.01 4393.78 8019.8 4456.02 7934.45 4456.02Z" fill="#FFC735" id="path62" class="KOJPtQWY_29"></path>
    <path d="M5250.14 5004.09C5897.73 5004.09 6422.72 4531.11 6422.72 3947.67C6422.72 3870.9 6491.8 3808.66 6577 3808.66C6662.21 3808.66 6731.29 3870.9 6731.29 3947.67C6731.29 4684.65 6068.16 5282.09 5250.14 5282.09C5164.94 5282.09 5095.86 5219.85 5095.86 5143.09C5095.86 5066.32 5164.94 5004.09 5250.14 5004.09Z" fill="#E5E0D5" id="path64" class="KOJPtQWY_30"></path>
    <path d="M9799.07 338.136C9246.93 338.136 8799.34 741.39 8799.34 1238.83C8799.34 1315.75 8730.12 1378.11 8644.75 1378.11C8559.37 1378.11 8490.15 1315.75 8490.15 1238.83C8490.15 587.543 9076.17 59.5723 9799.07 59.5723C9884.45 59.5723 9953.67 121.931 9953.67 198.854C9953.67 275.778 9884.45 338.136 9799.07 338.136Z" fill="#E5E0D5" id="path66" class="KOJPtQWY_31"></path>
    <path fill-rule="evenodd" clip-rule="evenodd" d="M9530.48 6699.92C9530.48 6346.78 9212.74 6060.5 8820.77 6060.5C8735.56 6060.5 8666.48 5998.27 8666.48 5921.5C8666.48 5844.74 8735.56 5782.5 8820.77 5782.5C9383.15 5782.5 9839.06 6193.24 9839.06 6699.92C9839.06 6776.68 9769.98 6838.92 9684.77 6838.92C9599.56 6838.92 9530.48 6776.68 9530.48 6699.92Z" fill="#FD6234" id="path68" class="KOJPtQWY_32"></path>
    <path fill-rule="evenodd" clip-rule="evenodd" d="M7075.13 6032.71C7075.13 6109.47 7006.05 6171.71 6920.84 6171.71C6835.63 6171.71 6766.55 6109.47 6766.55 6032.71C6766.55 5955.94 6835.63 5893.7 6920.84 5893.7C7006.05 5893.7 7075.13 5955.94 7075.13 6032.71Z" fill="#FD6234" id="path70" class="KOJPtQWY_33"></path>
    <path fill-rule="evenodd" clip-rule="evenodd" d="M7070.72 4892.89C7070.72 4969.65 7001.64 5031.89 6916.43 5031.89C6831.22 5031.89 6762.14 4969.65 6762.14 4892.89C6762.14 4816.12 6831.22 4753.88 6916.43 4753.88C7001.64 4753.88 7070.72 4816.12 7070.72 4892.89Z" fill="#FD6234" id="path72" class="KOJPtQWY_34"></path>
    <path fill-rule="evenodd" clip-rule="evenodd" d="M7070.72 4519.57C7070.72 4596.33 7001.64 4658.57 6916.43 4658.57C6831.22 4658.57 6762.14 4596.33 6762.14 4519.57C6762.14 4442.8 6831.22 4380.56 6916.43 4380.56C7001.64 4380.56 7070.72 4442.8 7070.72 4519.57Z" fill="#FD6234" id="path74" class="KOJPtQWY_35"></path>
    <path fill-rule="evenodd" clip-rule="evenodd" d="M6775.37 2986.57C6775.37 3063.34 6706.29 3125.57 6621.08 3125.57C6535.88 3125.57 6466.8 3063.34 6466.8 2986.57C6466.8 2909.8 6535.88 2847.57 6621.08 2847.57C6706.29 2847.57 6775.37 2909.8 6775.37 2986.57Z" fill="#FD6234" id="path76" class="KOJPtQWY_36"></path>
    <path fill-rule="evenodd" clip-rule="evenodd" d="M8089.01 5262.24C8089.01 5339 8019.93 5401.24 7934.73 5401.24C7849.52 5401.24 7780.44 5339 7780.44 5262.24C7780.44 5185.47 7849.52 5123.23 7934.73 5123.23C8019.93 5123.23 8089.01 5185.47 8089.01 5262.24Z" fill="#FD6234" id="path78" class="KOJPtQWY_37"></path>
    <path fill-rule="evenodd" clip-rule="evenodd" d="M3242.22 829.684C3100.02 829.684 2984.74 725.827 2984.74 597.713C2984.74 469.598 3100.02 365.741 3242.22 365.741C3384.42 365.741 3499.69 469.598 3499.69 597.713C3499.69 725.827 3384.42 829.684 3242.22 829.684ZM2675.76 597.713C2675.76 879.565 2929.37 1108.05 3242.22 1108.05C3555.06 1108.05 3808.67 879.565 3808.67 597.713C3808.67 315.861 3555.06 87.375 3242.22 87.375C2929.37 87.375 2675.76 315.861 2675.76 597.713Z" fill="#FFC735" id="path80" class="KOJPtQWY_38"></path>
    <path fill-rule="evenodd" clip-rule="evenodd" d="M2160.4 1360.24C2160.4 1232.13 2275.68 1128.27 2417.88 1128.27C2560.08 1128.27 2675.36 1232.13 2675.36 1360.24C2675.36 1488.35 2560.08 1592.21 2417.88 1592.21C2332.56 1592.21 2263.4 1654.53 2263.4 1731.39C2263.4 1808.26 2332.56 1870.58 2417.88 1870.58C2730.73 1870.58 2984.33 1642.09 2984.33 1360.24C2984.33 1078.39 2730.73 849.902 2417.88 849.902C2105.04 849.902 1851.43 1078.39 1851.43 1360.24C1851.43 1437.11 1920.6 1499.42 2005.92 1499.42C2091.24 1499.42 2160.4 1437.11 2160.4 1360.24Z" fill="#463C74" id="path82" class="KOJPtQWY_39"></path>
    <path fill-rule="evenodd" clip-rule="evenodd" d="M2160 1362.22C2160 1285.46 2090.92 1223.22 2005.72 1223.22C1920.51 1223.22 1851.43 1285.46 1851.43 1362.22C1851.43 1438.99 1920.51 1501.23 2005.72 1501.23C2090.92 1501.23 2160 1438.99 2160 1362.22Z" fill="#FD6234" id="path84" class="KOJPtQWY_40"></path>
    <path fill-rule="evenodd" clip-rule="evenodd" d="M2005.72 2204.18C2005.72 2127.42 1936.64 2065.18 1851.44 2065.18C1766.23 2065.18 1697.15 2127.42 1697.15 2204.18C1697.15 2280.95 1766.23 2343.18 1851.44 2343.18C1936.64 2343.18 2005.72 2280.95 2005.72 2204.18Z" fill="#463C74" id="path86" class="KOJPtQWY_41"></path>
    <path fill-rule="evenodd" clip-rule="evenodd" d="M2005.72 2573.53C2005.72 2496.77 1936.64 2434.53 1851.44 2434.53C1766.23 2434.53 1697.15 2496.77 1697.15 2573.53C1697.15 2650.3 1766.23 2712.54 1851.44 2712.54C1936.64 2712.54 2005.72 2650.3 2005.72 2573.53Z" fill="#463C74" id="path88" class="KOJPtQWY_42"></path>
    <path fill-rule="evenodd" clip-rule="evenodd" d="M3345.8 2732.39C3345.8 2655.62 3276.72 2593.39 3191.52 2593.39C3106.31 2593.39 3037.23 2655.62 3037.23 2732.39C3037.23 2809.16 3106.31 2871.39 3191.52 2871.39C3276.72 2871.39 3345.8 2809.16 3345.8 2732.39Z" fill="#463C74" id="path90" class="KOJPtQWY_43"></path>
    <path fill-rule="evenodd" clip-rule="evenodd" d="M3768.99 2712.54C3768.99 2635.77 3699.91 2573.53 3614.71 2573.53C3529.5 2573.53 3460.42 2635.77 3460.42 2712.54C3460.42 2789.3 3529.5 2851.54 3614.71 2851.54C3699.91 2851.54 3768.99 2789.3 3768.99 2712.54Z" fill="#463C74" id="path92" class="KOJPtQWY_44"></path>
    <path fill-rule="evenodd" clip-rule="evenodd" d="M2984.34 599.694C2984.34 522.926 2915.26 460.691 2830.05 460.691C2744.84 460.691 2675.76 522.926 2675.76 599.694C2675.76 676.463 2744.84 738.696 2830.05 738.696C2915.26 738.696 2984.34 676.463 2984.34 599.694Z" fill="#FD6234" id="path94" class="KOJPtQWY_45"></path>
    <path fill-rule="evenodd" clip-rule="evenodd" d="M3398.71 599.694C3398.71 522.925 3329.63 460.691 3244.42 460.691C3159.21 460.691 3090.13 522.925 3090.13 599.694C3090.13 676.463 3159.21 738.696 3244.42 738.696C3329.63 738.696 3398.71 676.463 3398.71 599.694Z" fill="#FD6234" id="path96" class="KOJPtQWY_46"></path>
    <path fill-rule="evenodd" clip-rule="evenodd" d="M1490.28 1218.89C1348.55 1218.89 1233.66 1115.03 1233.66 986.916C1233.66 858.801 1348.55 754.944 1490.28 754.944C1575.31 754.944 1644.25 692.63 1644.25 615.761C1644.25 538.892 1575.31 476.578 1490.28 476.578C1178.47 476.578 925.715 705.064 925.715 986.916C925.715 1268.77 1178.47 1497.25 1490.28 1497.25C1575.31 1497.25 1644.25 1434.94 1644.25 1358.07C1644.25 1281.2 1575.31 1218.89 1490.28 1218.89Z" fill="#FFC735" id="path98" class="KOJPtQWY_47"></path>
    <path fill-rule="evenodd" clip-rule="evenodd" d="M7485.09 6032.71C7485.09 6109.47 7416.01 6171.71 7330.8 6171.71C7245.59 6171.71 7176.51 6109.47 7176.51 6032.71C7176.51 5955.94 7245.59 5893.7 7330.8 5893.7C7416.01 5893.7 7485.09 5955.94 7485.09 6032.71Z" fill="#463C74" id="path100" class="KOJPtQWY_48"></path>
    <path fill-rule="evenodd" clip-rule="evenodd" d="M7895.05 6032.71C7895.05 6109.47 7825.97 6171.71 7740.77 6171.71C7655.56 6171.71 7586.48 6109.47 7586.48 6032.71C7586.48 5955.94 7655.56 5893.7 7740.77 5893.7C7825.97 5893.7 7895.05 5955.94 7895.05 6032.71Z" fill="#463C74" id="path102" class="KOJPtQWY_49"></path>
    <path fill-rule="evenodd" clip-rule="evenodd" d="M5373.57 5143.09C5373.57 5219.86 5304.49 5282.09 5219.28 5282.09C5134.07 5282.09 5064.99 5219.86 5064.99 5143.09C5064.99 5066.33 5134.07 5004.09 5219.28 5004.09C5304.49 5004.09 5373.57 5066.33 5373.57 5143.09Z" fill="#FD6234" id="path104" class="KOJPtQWY_50"></path>
    <path fill-rule="evenodd" clip-rule="evenodd" d="M7102.09 1322.51C6927.73 1322.51 6784.7 1450.7 6784.7 1610.69C6784.7 1770.67 6927.73 1898.86 7102.09 1898.86C7735.72 1898.86 8247.7 2363.56 8247.7 2934.94C8247.7 3011.7 8178.51 3073.94 8093.16 3073.94C8007.81 3073.94 7938.62 3011.7 7938.62 2934.94C7938.62 2515.44 7563.17 2176.86 7102.09 2176.86C6755.18 2176.86 6475.62 1922.55 6475.62 1610.69C6475.62 1298.82 6755.18 1044.5 7102.09 1044.5C7187.45 1044.5 7256.63 1106.74 7256.63 1183.51C7256.63 1260.27 7187.45 1322.51 7102.09 1322.51Z" fill="#FFC735" id="path106" class="KOJPtQWY_51"></path>
    <path fill-rule="evenodd" clip-rule="evenodd" d="M7934.72 2935.25C7934.72 3357.23 7560.2 3696.84 7101.57 3696.84C7016.37 3696.84 6947.29 3759.22 6947.29 3836.16C6947.29 3913.1 7016.37 3975.47 7101.57 3975.47C7733.63 3975.47 8243.29 3508.39 8243.29 2935.25C8243.29 2858.31 8174.21 2795.94 8089.01 2795.94C8003.8 2795.94 7934.72 2858.31 7934.72 2935.25Z" fill="#FD6234" id="path108" class="KOJPtQWY_52"></path>
    <path fill-rule="evenodd" clip-rule="evenodd" d="M8089.01 3073.94C8003.8 3073.94 7934.72 3011.71 7934.72 2934.94C7934.72 2858.17 8003.8 2795.94 8089.01 2795.94C8174.22 2795.94 8243.29 2858.17 8243.29 2934.94C8243.29 3011.71 8174.22 3073.94 8089.01 3073.94Z" fill="#463C74" id="path110" class="KOJPtQWY_53"></path>
    <path fill-rule="evenodd" clip-rule="evenodd" d="M5990.71 2092.98C6075.92 2092.98 6145 2155.31 6145 2232.19V2835.44C6145 2912.32 6075.92 2974.65 5990.71 2974.65C5905.5 2974.65 5836.43 2912.32 5836.43 2835.44V2232.19C5836.43 2155.31 5905.5 2092.98 5990.71 2092.98Z" fill="#B4D51E" id="path112" class="KOJPtQWY_54"></path>
    <path fill-rule="evenodd" clip-rule="evenodd" d="M3460.12 1310.73C3460.12 1828.15 2994.55 2247.6 2420.24 2247.6C2334.95 2247.6 2265.8 2309.89 2265.8 2386.73C2265.8 2463.58 2334.95 2525.87 2420.24 2525.87C3165.13 2525.87 3768.99 1981.83 3768.99 1310.73C3768.99 1233.89 3699.85 1171.59 3614.55 1171.59C3529.26 1171.59 3460.12 1233.89 3460.12 1310.73Z" fill="#B4D51E" id="path114" class="KOJPtQWY_55"></path>
    <path d="M8543.05 1608.45C8543.05 1685.22 8473.85 1747.46 8388.49 1747.46H7079.82C6994.46 1747.46 6925.25 1685.22 6925.25 1608.45C6925.25 1531.69 6994.46 1469.45 7079.82 1469.45H8388.49C8473.85 1469.45 8543.05 1531.69 8543.05 1608.45Z" fill="#E5E0D5" id="path116" class="KOJPtQWY_56"></path>
    <path fill-rule="evenodd" clip-rule="evenodd" d="M3768.99 1310.59C3768.99 1233.83 3699.91 1171.59 3614.71 1171.59C3529.5 1171.59 3460.42 1233.83 3460.42 1310.59C3460.42 1387.36 3529.5 1449.6 3614.71 1449.6C3699.91 1449.6 3768.99 1387.36 3768.99 1310.59Z" fill="#FD6234" id="path118" class="KOJPtQWY_57"></path>
    <path fill-rule="evenodd" clip-rule="evenodd" d="M8233.37 1309.6C8173.12 1363.88 8075.42 1363.88 8015.18 1309.6C7954.92 1255.31 7954.92 1167.29 8015.18 1113.02C8075.42 1058.73 8173.12 1058.73 8233.37 1113.02C8293.62 1167.29 8293.62 1255.31 8233.37 1309.6Z" fill="#463C74" id="path120" class="KOJPtQWY_58"></path>
    <path fill-rule="evenodd" clip-rule="evenodd" d="M7184.22 892.583C7123.97 946.869 7026.27 946.869 6966.03 892.583C6905.78 838.299 6905.78 750.289 6966.03 696.006C7026.27 641.722 7123.97 641.722 7184.22 696.006C7244.48 750.289 7244.48 838.299 7184.22 892.583Z" fill="#463C74" id="path122" class="KOJPtQWY_59"></path>
    <path fill-rule="evenodd" clip-rule="evenodd" d="M417 226.002C417 149.233 486.076 87 571.286 87H1281C1366.21 87 1435.29 149.233 1435.29 226.002C1435.29 302.772 1366.21 365.005 1281 365.005H571.286C486.076 365.005 417 302.772 417 226.002Z" fill="#FD6234" id="path124" class="KOJPtQWY_60"></path>
    <path fill-rule="evenodd" clip-rule="evenodd" d="M6621.33 952.721C6360.42 952.721 6148.93 1143.27 6148.93 1378.33C6148.93 1454.97 6079.96 1517.11 5994.88 1517.11C5909.8 1517.11 5840.84 1454.97 5840.84 1378.33C5840.84 989.97 6190.27 675.152 6621.33 675.152C6706.4 675.152 6775.37 737.288 6775.37 813.937C6775.37 890.585 6706.4 952.721 6621.33 952.721Z" fill="#FD6234" id="path126" class="KOJPtQWY_61"></path>
    <path fill-rule="evenodd" clip-rule="evenodd" d="M5886.03 1279.82C5946.27 1225.53 6043.97 1225.53 6104.22 1279.82C6164.48 1334.1 6164.48 1422.11 6104.22 1476.4C6043.97 1530.68 5946.27 1530.68 5886.03 1476.4C5825.78 1422.11 5825.78 1334.1 5886.03 1279.82Z" fill="#463C74" id="path128" class="KOJPtQWY_62"></path>
    <path fill-rule="evenodd" clip-rule="evenodd" d="M8944.2 5345.64C9489.54 5345.64 9931.63 4947.34 9931.63 4456.02C9931.63 4379.26 10000.7 4317.02 10085.9 4317.02C10171.1 4317.02 10240.2 4379.26 10240.2 4456.02C10240.2 5100.88 9659.96 5623.64 8944.2 5623.64C8858.99 5623.64 8789.91 5561.41 8789.91 5484.64C8789.91 5407.87 8858.99 5345.64 8944.2 5345.64Z" fill="#B4D51E" id="path130" class="KOJPtQWY_63"></path>
    <path fill-rule="evenodd" clip-rule="evenodd" d="M10195 4554.31C10134.8 4608.6 10037.1 4608.6 9976.81 4554.31C9916.56 4500.03 9916.56 4412.01 9976.81 4357.73C10037.1 4303.45 10134.8 4303.45 10195 4357.73C10255.3 4412.01 10255.3 4500.03 10195 4554.31Z" fill="#463C74" id="path132" class="KOJPtQWY_64"></path>
    <path fill-rule="evenodd" clip-rule="evenodd" d="M10631.4 4554.31C10571.1 4608.6 10473.4 4608.6 10413.2 4554.31C10353 4500.03 10353 4412.01 10413.2 4357.73C10473.4 4303.45 10571.1 4303.45 10631.4 4357.73C10691.7 4412.01 10691.7 4500.03 10631.4 4554.31Z" fill="#463C74" id="path134" class="KOJPtQWY_65"></path>
    <path fill-rule="evenodd" clip-rule="evenodd" d="M11663.8 5076.03C10924.1 5076.03 10324.5 5616.27 10324.5 6282.68C10324.5 6359.58 10255.3 6421.91 10169.9 6421.91C10084.6 6421.91 10015.4 6359.58 10015.4 6282.68C10015.4 5462.47 10753.4 4797.57 11663.8 4797.57C11749.1 4797.57 11818.3 4859.91 11818.3 4936.8C11818.3 5013.69 11749.1 5076.03 11663.8 5076.03Z" fill="#FFC735" id="path136" class="KOJPtQWY_66"></path>
    <path fill-rule="evenodd" clip-rule="evenodd" d="M8543.05 1607.76C8543.48 1684.52 8474.76 1747.08 8389.54 1747.46C8304.33 1747.85 8234.91 1685.93 8234.48 1609.16C8234.05 1532.39 8302.78 1469.84 8387.98 1469.45C8473.19 1469.07 8542.62 1530.99 8543.05 1607.76Z" fill="#FD6234" id="path138" class="KOJPtQWY_67"></path>
    <path fill-rule="evenodd" clip-rule="evenodd" d="M9953.67 197.874C9954.1 274.642 9885.38 337.19 9800.16 337.579C9714.95 337.965 9645.53 276.047 9645.1 199.279C9644.67 122.512 9713.4 59.9642 9798.61 59.5741C9883.81 59.1876 9953.25 121.107 9953.67 197.874Z" fill="#FD6234" id="path140" class="KOJPtQWY_68"></path>
    <path fill-rule="evenodd" clip-rule="evenodd" d="M8543.05 209.782C8543.48 286.551 8474.76 349.098 8389.54 349.487C8304.33 349.874 8234.91 287.955 8234.48 211.187C8234.05 134.42 8302.78 71.8724 8387.98 71.4823C8473.19 71.0958 8542.62 133.015 8543.05 209.782Z" fill="#FD6234" id="path142" class="KOJPtQWY_69"></path>
    <path fill-rule="evenodd" clip-rule="evenodd" d="M8543.05 579.134C8543.48 655.902 8474.76 718.45 8389.54 718.839C8304.33 719.225 8234.91 657.307 8234.48 580.539C8234.05 503.771 8302.78 441.224 8387.98 440.834C8473.19 440.447 8542.62 502.367 8543.05 579.134Z" fill="#FD6234" id="path144" class="KOJPtQWY_70"></path>
    <path d="M11584.6 4595.02H10972.1C10886.8 4595.02 10817.7 4532.79 10817.7 4456.02C10817.7 4379.26 10886.8 4317.02 10972.1 4317.02H11584.6C11669.8 4317.02 11739 4379.26 11739 4456.02C11739 4532.79 11669.8 4595.02 11584.6 4595.02Z" fill="#E5E0D5" id="path146" class="KOJPtQWY_71"></path>
    <path fill-rule="evenodd" clip-rule="evenodd" d="M11818.3 4936.57C11818.3 5013.34 11749.2 5075.58 11664 5075.58C11578.9 5075.58 11509.8 5013.34 11509.8 4936.57C11509.8 4859.81 11578.9 4797.57 11664 4797.57C11749.2 4797.57 11818.3 4859.81 11818.3 4936.57Z" fill="#FD6234" id="path148" class="KOJPtQWY_72"></path>
    <path fill-rule="evenodd" clip-rule="evenodd" d="M10054.7 1237.12C10054.7 1109.01 9939.38 1005.15 9797.18 1005.15C9654.98 1005.15 9539.7 1109.01 9539.7 1237.12C9539.7 1365.23 9654.98 1469.09 9797.18 1469.09C9882.49 1469.09 9951.66 1531.41 9951.66 1608.28C9951.66 1685.14 9882.49 1747.46 9797.18 1747.46C9484.33 1747.46 9230.73 1518.98 9230.73 1237.12C9230.73 955.266 9484.33 726.783 9797.18 726.783C10110 726.783 10363.6 955.266 10363.6 1237.12C10363.6 1313.99 10294.4 1376.3 10209.1 1376.3C10123.8 1376.3 10054.7 1313.99 10054.7 1237.12Z" fill="#463C74" id="path150" class="KOJPtQWY_73"></path>
    <path d="M10848.8 278.366C10707.1 278.366 10592.2 382.223 10592.2 510.338C10592.2 638.452 10707.1 742.309 10848.8 742.309C10933.8 742.309 11002.8 804.623 11002.8 881.492C11002.8 958.358 10933.8 1020.68 10848.8 1020.68C10537 1020.68 10284.3 792.19 10284.3 510.338C10284.3 228.486 10537 0 10848.8 0C10933.8 0 11002.8 62.3143 11002.8 139.183C11002.8 216.052 10933.8 278.366 10848.8 278.366Z" fill="#E5E0D5" id="path152" class="KOJPtQWY_74"></path>
    <path fill-rule="evenodd" clip-rule="evenodd" d="M9962.49 1608.45C9962.49 1685.22 9893.41 1747.46 9808.2 1747.46C9722.99 1747.46 9653.91 1685.22 9653.91 1608.45C9653.91 1531.69 9722.99 1469.45 9808.2 1469.45C9893.41 1469.45 9962.49 1531.69 9962.49 1608.45Z" fill="#FD6234" id="path154" class="KOJPtQWY_75"></path>
    <path fill-rule="evenodd" clip-rule="evenodd" d="M11011.6 881.67C11011.6 958.437 10942.5 1020.67 10857.3 1020.67C10772.2 1020.67 10703.1 958.437 10703.1 881.67C10703.1 804.901 10772.2 742.668 10857.3 742.668C10942.5 742.668 11011.6 804.901 11011.6 881.67Z" fill="#463C74" id="path156" class="KOJPtQWY_76"></path>
    <path fill-rule="evenodd" clip-rule="evenodd" d="M10376.9 1608.45C10376.9 1685.22 10307.7 1747.46 10222.6 1747.46C10137.4 1747.46 10068.3 1685.22 10068.3 1608.45C10068.3 1531.69 10137.4 1469.45 10222.6 1469.45C10307.7 1469.45 10376.9 1531.69 10376.9 1608.45Z" fill="#463C74" id="path158" class="KOJPtQWY_77"></path>
    <path fill-rule="evenodd" clip-rule="evenodd" d="M10786.8 1608.45C10786.8 1685.22 10717.7 1747.46 10632.5 1747.46C10547.4 1747.46 10478.2 1685.22 10478.2 1608.45C10478.2 1531.69 10547.4 1469.45 10632.5 1469.45C10717.7 1469.45 10786.8 1531.69 10786.8 1608.45Z" fill="#463C74" id="path160" class="KOJPtQWY_78"></path>
    <path fill-rule="evenodd" clip-rule="evenodd" d="M11024.9 504.377C11024.9 581.147 10955.7 643.38 10870.6 643.38C10785.4 643.38 10716.3 581.147 10716.3 504.377C10716.3 427.608 10785.4 365.375 10870.6 365.375C10955.7 365.375 11024.9 427.608 11024.9 504.377Z" fill="#FD6234" id="path162" class="KOJPtQWY_79"></path>
    <path fill-rule="evenodd" clip-rule="evenodd" d="M11434.8 504.377C11434.8 581.147 11365.7 643.38 11280.5 643.38C11195.4 643.38 11126.2 581.147 11126.2 504.377C11126.2 427.608 11195.4 365.375 11280.5 365.375C11365.7 365.375 11434.8 427.608 11434.8 504.377Z" fill="#FD6234" id="path164" class="KOJPtQWY_80"></path>
    <path fill-rule="evenodd" clip-rule="evenodd" d="M11849.2 504.377C11849.2 581.147 11780.1 643.38 11694.9 643.38C11609.7 643.38 11540.6 581.147 11540.6 504.377C11540.6 427.608 11609.7 365.375 11694.9 365.375C11780.1 365.375 11849.2 427.608 11849.2 504.377Z" fill="#FD6234" id="path166" class="KOJPtQWY_81"></path>
    <path fill-rule="evenodd" clip-rule="evenodd" d="M11284.9 2982.59C11199.8 2982.59 11130.7 2920.36 11130.7 2843.59C11130.7 2766.82 11199.8 2704.59 11284.9 2704.59C11370.1 2704.59 11439.2 2766.82 11439.2 2843.59C11439.2 2920.36 11370.1 2982.59 11284.9 2982.59Z" fill="#463C74" id="path168" class="KOJPtQWY_82"></path>
  </g>
  <defs id="defs189">
    <filter id="filter0_d_10:10695" x="413" y="0" width="11449" height="8082.06" filterUnits="userSpaceOnUse" color-interpolation-filters="sRGB">
      <feFlood flood-opacity="0" result="BackgroundImageFix" id="feFlood172"></feFlood>
      <feColorMatrix in="SourceAlpha" type="matrix" values="0 0 0 0 0 0 0 0 0 0 0 0 0 0 0 0 0 0 127 0" result="hardAlpha" id="feColorMatrix174"></feColorMatrix>
      <feOffset dy="4" id="feOffset176"></feOffset>
      <feGaussianBlur stdDeviation="2" id="feGaussianBlur178"></feGaussianBlur>
      <feComposite in2="hardAlpha" operator="out" id="feComposite180"></feComposite>
      <feColorMatrix type="matrix" values="0 0 0 0 0 0 0 0 0 0 0 0 0 0 0 0 0 0 0.25 0" id="feColorMatrix182"></feColorMatrix>
      <feBlend mode="normal" in2="BackgroundImageFix" result="effect1_dropShadow_10:10695" id="feBlend184"></feBlend>
      <feBlend mode="normal" in="SourceGraphic" in2="effect1_dropShadow_10:10695" result="shape" id="feBlend186"></feBlend>
    </filter>
  </defs>
<style data-made-with="vivus-instant">.KOJPtQWY_0{stroke-dasharray:4925 4927;stroke-dashoffset:4926;animation:KOJPtQWY_draw 3000ms ease-out 0ms forwards;}.KOJPtQWY_1{stroke-dasharray:923 925;stroke-dashoffset:924;animation:KOJPtQWY_draw 3000ms ease-out 0ms forwards;}.KOJPtQWY_2{stroke-dasharray:4570 4572;stroke-dashoffset:4571;animation:KOJPtQWY_draw 3000ms ease-out 0ms forwards;}.KOJPtQWY_3{stroke-dasharray:923 925;stroke-dashoffset:924;animation:KOJPtQWY_draw 3000ms ease-out 0ms forwards;}.KOJPtQWY_4{stroke-dasharray:4466 4468;stroke-dashoffset:4467;animation:KOJPtQWY_draw 3000ms ease-out 0ms forwards;}.KOJPtQWY_5{stroke-dasharray:4216 4218;stroke-dashoffset:4217;animation:KOJPtQWY_draw 3000ms ease-out 0ms forwards;}.KOJPtQWY_6{stroke-dasharray:8321 8323;stroke-dashoffset:8322;animation:KOJPtQWY_draw 3000ms ease-out 0ms forwards;}.KOJPtQWY_7{stroke-dasharray:4617 4619;stroke-dashoffset:4618;animation:KOJPtQWY_draw 3000ms ease-out 0ms forwards;}.KOJPtQWY_8{stroke-dasharray:923 925;stroke-dashoffset:924;animation:KOJPtQWY_draw 3000ms ease-out 0ms forwards;}.KOJPtQWY_9{stroke-dasharray:923 925;stroke-dashoffset:924;animation:KOJPtQWY_draw 3000ms ease-out 0ms forwards;}.KOJPtQWY_10{stroke-dasharray:923 925;stroke-dashoffset:924;animation:KOJPtQWY_draw 3000ms ease-out 0ms forwards;}.KOJPtQWY_11{stroke-dasharray:18071 18073;stroke-dashoffset:18072;animation:KOJPtQWY_draw 3000ms ease-out 0ms forwards;}.KOJPtQWY_12{stroke-dasharray:4739 4741;stroke-dashoffset:4740;animation:KOJPtQWY_draw 3000ms ease-out 0ms forwards;}.KOJPtQWY_13{stroke-dasharray:3505 3507;stroke-dashoffset:3506;animation:KOJPtQWY_draw 3000ms ease-out 0ms forwards;}.KOJPtQWY_14{stroke-dasharray:923 925;stroke-dashoffset:924;animation:KOJPtQWY_draw 3000ms ease-out 0ms forwards;}.KOJPtQWY_15{stroke-dasharray:3381 3383;stroke-dashoffset:3382;animation:KOJPtQWY_draw 3000ms ease-out 0ms forwards;}.KOJPtQWY_16{stroke-dasharray:3381 3383;stroke-dashoffset:3382;animation:KOJPtQWY_draw 3000ms ease-out 0ms forwards;}.KOJPtQWY_17{stroke-dasharray:3847 3849;stroke-dashoffset:3848;animation:KOJPtQWY_draw 3000ms ease-out 0ms forwards;}.KOJPtQWY_18{stroke-dasharray:923 925;stroke-dashoffset:924;animation:KOJPtQWY_draw 3000ms ease-out 0ms forwards;}.KOJPtQWY_19{stroke-dasharray:923 925;stroke-dashoffset:924;animation:KOJPtQWY_draw 3000ms ease-out 0ms forwards;}.KOJPtQWY_20{stroke-dasharray:923 925;stroke-dashoffset:924;animation:KOJPtQWY_draw 3000ms ease-out 0ms forwards;}.KOJPtQWY_21{stroke-dasharray:923 925;stroke-dashoffset:924;animation:KOJPtQWY_draw 3000ms ease-out 0ms forwards;}.KOJPtQWY_22{stroke-dasharray:8629 8631;stroke-dashoffset:8630;animation:KOJPtQWY_draw 3000ms ease-out 0ms forwards;}.KOJPtQWY_23{stroke-dasharray:3077 3079;stroke-dashoffset:3078;animation:KOJPtQWY_draw 3000ms ease-out 0ms forwards;}.KOJPtQWY_24{stroke-dasharray:923 925;stroke-dashoffset:924;animation:KOJPtQWY_draw 3000ms ease-out 0ms forwards;}.KOJPtQWY_25{stroke-dasharray:4617 4619;stroke-dashoffset:4618;animation:KOJPtQWY_draw 3000ms ease-out 0ms forwards;}.KOJPtQWY_26{stroke-dasharray:923 925;stroke-dashoffset:924;animation:KOJPtQWY_draw 3000ms ease-out 0ms forwards;}.KOJPtQWY_27{stroke-dasharray:923 925;stroke-dashoffset:924;animation:KOJPtQWY_draw 3000ms ease-out 0ms forwards;}.KOJPtQWY_28{stroke-dasharray:923 925;stroke-dashoffset:924;animation:KOJPtQWY_draw 3000ms ease-out 0ms forwards;}.KOJPtQWY_29{stroke-dasharray:4029 4031;stroke-dashoffset:4030;animation:KOJPtQWY_draw 3000ms ease-out 0ms forwards;}.KOJPtQWY_30{stroke-dasharray:4888 4890;stroke-dashoffset:4889;animation:KOJPtQWY_draw 3000ms ease-out 0ms forwards;}.KOJPtQWY_31{stroke-dasharray:4374 4376;stroke-dashoffset:4375;animation:KOJPtQWY_draw 3000ms ease-out 0ms forwards;}.KOJPtQWY_32{stroke-dasharray:3505 3507;stroke-dashoffset:3506;animation:KOJPtQWY_draw 3000ms ease-out 0ms forwards;}.KOJPtQWY_33{stroke-dasharray:923 925;stroke-dashoffset:924;animation:KOJPtQWY_draw 3000ms ease-out 0ms forwards;}.KOJPtQWY_34{stroke-dasharray:923 925;stroke-dashoffset:924;animation:KOJPtQWY_draw 3000ms ease-out 0ms forwards;}.KOJPtQWY_35{stroke-dasharray:923 925;stroke-dashoffset:924;animation:KOJPtQWY_draw 3000ms ease-out 0ms forwards;}.KOJPtQWY_36{stroke-dasharray:923 925;stroke-dashoffset:924;animation:KOJPtQWY_draw 3000ms ease-out 0ms forwards;}.KOJPtQWY_37{stroke-dasharray:923 925;stroke-dashoffset:924;animation:KOJPtQWY_draw 3000ms ease-out 0ms forwards;}.KOJPtQWY_38{stroke-dasharray:4925 4927;stroke-dashoffset:4926;animation:KOJPtQWY_draw 3000ms ease-out 0ms forwards;}.KOJPtQWY_39{stroke-dasharray:4617 4619;stroke-dashoffset:4618;animation:KOJPtQWY_draw 3000ms ease-out 0ms forwards;}.KOJPtQWY_40{stroke-dasharray:923 925;stroke-dashoffset:924;animation:KOJPtQWY_draw 3000ms ease-out 0ms forwards;}.KOJPtQWY_41{stroke-dasharray:923 925;stroke-dashoffset:924;animation:KOJPtQWY_draw 3000ms ease-out 0ms forwards;}.KOJPtQWY_42{stroke-dasharray:923 925;stroke-dashoffset:924;animation:KOJPtQWY_draw 3000ms ease-out 0ms forwards;}.KOJPtQWY_43{stroke-dasharray:923 925;stroke-dashoffset:924;animation:KOJPtQWY_draw 3000ms ease-out 0ms forwards;}.KOJPtQWY_44{stroke-dasharray:923 925;stroke-dashoffset:924;animation:KOJPtQWY_draw 3000ms ease-out 0ms forwards;}.KOJPtQWY_45{stroke-dasharray:923 925;stroke-dashoffset:924;animation:KOJPtQWY_draw 3000ms ease-out 0ms forwards;}.KOJPtQWY_46{stroke-dasharray:923 925;stroke-dashoffset:924;animation:KOJPtQWY_draw 3000ms ease-out 0ms forwards;}.KOJPtQWY_47{stroke-dasharray:3380 3382;stroke-dashoffset:3381;animation:KOJPtQWY_draw 3000ms ease-out 0ms forwards;}.KOJPtQWY_48{stroke-dasharray:923 925;stroke-dashoffset:924;animation:KOJPtQWY_draw 3000ms ease-out 0ms forwards;}.KOJPtQWY_49{stroke-dasharray:923 925;stroke-dashoffset:924;animation:KOJPtQWY_draw 3000ms ease-out 0ms forwards;}.KOJPtQWY_50{stroke-dasharray:923 925;stroke-dashoffset:924;animation:KOJPtQWY_draw 3000ms ease-out 0ms forwards;}.KOJPtQWY_51{stroke-dasharray:6718 6720;stroke-dashoffset:6719;animation:KOJPtQWY_draw 3000ms ease-out 0ms forwards;}.KOJPtQWY_52{stroke-dasharray:3892 3894;stroke-dashoffset:3893;animation:KOJPtQWY_draw 3000ms ease-out 0ms forwards;}.KOJPtQWY_53{stroke-dasharray:923 925;stroke-dashoffset:924;animation:KOJPtQWY_draw 3000ms ease-out 0ms forwards;}.KOJPtQWY_54{stroke-dasharray:2130 2132;stroke-dashoffset:2131;animation:KOJPtQWY_draw 3000ms ease-out 0ms forwards;}.KOJPtQWY_55{stroke-dasharray:4493 4495;stroke-dashoffset:4494;animation:KOJPtQWY_draw 3000ms ease-out 0ms forwards;}.KOJPtQWY_56{stroke-dasharray:3541 3543;stroke-dashoffset:3542;animation:KOJPtQWY_draw 3000ms ease-out 0ms forwards;}.KOJPtQWY_57{stroke-dasharray:923 925;stroke-dashoffset:924;animation:KOJPtQWY_draw 3000ms ease-out 0ms forwards;}.KOJPtQWY_58{stroke-dasharray:923 925;stroke-dashoffset:924;animation:KOJPtQWY_draw 3000ms ease-out 0ms forwards;}.KOJPtQWY_59{stroke-dasharray:923 925;stroke-dashoffset:924;animation:KOJPtQWY_draw 3000ms ease-out 0ms forwards;}.KOJPtQWY_60{stroke-dasharray:2342 2344;stroke-dashoffset:2343;animation:KOJPtQWY_draw 3000ms ease-out 0ms forwards;}.KOJPtQWY_61{stroke-dasharray:2793 2795;stroke-dashoffset:2794;animation:KOJPtQWY_draw 3000ms ease-out 0ms forwards;}.KOJPtQWY_62{stroke-dasharray:923 925;stroke-dashoffset:924;animation:KOJPtQWY_draw 3000ms ease-out 0ms forwards;}.KOJPtQWY_63{stroke-dasharray:4335 4337;stroke-dashoffset:4336;animation:KOJPtQWY_draw 3000ms ease-out 0ms forwards;}.KOJPtQWY_64{stroke-dasharray:923 925;stroke-dashoffset:924;animation:KOJPtQWY_draw 3000ms ease-out 0ms forwards;}.KOJPtQWY_65{stroke-dasharray:923 925;stroke-dashoffset:924;animation:KOJPtQWY_draw 3000ms ease-out 0ms forwards;}.KOJPtQWY_66{stroke-dasharray:5388 5390;stroke-dashoffset:5389;animation:KOJPtQWY_draw 3000ms ease-out 0ms forwards;}.KOJPtQWY_67{stroke-dasharray:923 925;stroke-dashoffset:924;animation:KOJPtQWY_draw 3000ms ease-out 0ms forwards;}.KOJPtQWY_68{stroke-dasharray:923 925;stroke-dashoffset:924;animation:KOJPtQWY_draw 3000ms ease-out 0ms forwards;}.KOJPtQWY_69{stroke-dasharray:923 925;stroke-dashoffset:924;animation:KOJPtQWY_draw 3000ms ease-out 0ms forwards;}.KOJPtQWY_70{stroke-dasharray:923 925;stroke-dashoffset:924;animation:KOJPtQWY_draw 3000ms ease-out 0ms forwards;}.KOJPtQWY_71{stroke-dasharray:2148 2150;stroke-dashoffset:2149;animation:KOJPtQWY_draw 3000ms ease-out 0ms forwards;}.KOJPtQWY_72{stroke-dasharray:923 925;stroke-dashoffset:924;animation:KOJPtQWY_draw 3000ms ease-out 0ms forwards;}.KOJPtQWY_73{stroke-dasharray:4617 4619;stroke-dashoffset:4618;animation:KOJPtQWY_draw 3000ms ease-out 0ms forwards;}.KOJPtQWY_74{stroke-dasharray:3380 3382;stroke-dashoffset:3381;animation:KOJPtQWY_draw 3000ms ease-out 0ms forwards;}.KOJPtQWY_75{stroke-dasharray:923 925;stroke-dashoffset:924;animation:KOJPtQWY_draw 3000ms ease-out 0ms forwards;}.KOJPtQWY_76{stroke-dasharray:923 925;stroke-dashoffset:924;animation:KOJPtQWY_draw 3000ms ease-out 0ms forwards;}.KOJPtQWY_77{stroke-dasharray:923 925;stroke-dashoffset:924;animation:KOJPtQWY_draw 3000ms ease-out 0ms forwards;}.KOJPtQWY_78{stroke-dasharray:923 925;stroke-dashoffset:924;animation:KOJPtQWY_draw 3000ms ease-out 0ms forwards;}.KOJPtQWY_79{stroke-dasharray:923 925;stroke-dashoffset:924;animation:KOJPtQWY_draw 3000ms ease-out 0ms forwards;}.KOJPtQWY_80{stroke-dasharray:923 925;stroke-dashoffset:924;animation:KOJPtQWY_draw 3000ms ease-out 0ms forwards;}.KOJPtQWY_81{stroke-dasharray:923 925;stroke-dashoffset:924;animation:KOJPtQWY_draw 3000ms ease-out 0ms forwards;}.KOJPtQWY_82{stroke-dasharray:923 925;stroke-dashoffset:924;animation:KOJPtQWY_draw 3000ms ease-out 0ms forwards;}@keyframes KOJPtQWY_draw{100%{stroke-dashoffset:0;}}@keyframes KOJPtQWY_fade{0%{stroke-opacity:1;}94.44444444444444%{stroke-opacity:1;}100%{stroke-opacity:0;}}</style></svg>
